<svg xmlns="http://www.w3.org/2000/svg" xmlns:xlink="http://www.w3.org/1999/xlink" version="1.1" x="0px" y="0px" viewBox="0 0 100 100" enable-background="new 0 0 100 100" xml:space="preserve"><path d="M79,47.7l-37.4,37c-3,3-7,4.6-11.2,4.6c-4.2,0-8.2-1.6-11.2-4.6c-6.2-6.2-6.2-16.2,0-22.4L65,14.2c2.3-2.3,5.3-3.5,8.4-3.5  s6.2,1.2,8.4,3.5c4.7,4.7,4.7,12.2,0,16.9L40.6,71.9c-1.1,1.1-2.7,1.8-4.3,1.8c-1.6,0-3.1-0.6-4.3-1.8c-1.1-1.1-1.8-2.7-1.8-4.3  s0.6-3.1,1.8-4.3l31.5-31.1l-4-4L28,59.3c-4.6,4.6-4.6,12,0,16.6c2.3,2.3,5.3,3.4,8.3,3.4c3,0,6-1.1,8.3-3.4l41.3-40.8  c6.9-6.9,6.9-18,0-24.9C82.5,6.7,78,5,73.5,5s-9,1.7-12.5,5.2L15.2,58.3c-8.4,8.4-8.4,22,0,30.4c4.2,4.2,9.7,6.3,15.2,6.3  c5.5,0,11-2.1,15.2-6.3l37.4-37L79,47.7z"/></svg>